<svg width="35" height="25" viewBox="0 0 35 25" fill="none" xmlns="http://www.w3.org/2000/svg">
<path d="M31.8775 25H2.81531C1.26295 25 0 23.7218 0 22.1508V2.84923C0 1.27817 1.26295 0 2.81531 0H31.8775C33.4298 0 34.6928 1.27817 34.6928 2.84923V22.1508C34.6928 23.7218 33.4298 25 31.8775 25ZM2.81531 2.02176C2.36469 2.02176 1.99789 2.39299 1.99789 2.84903V22.1506C1.99789 22.6066 2.3647 22.9778 2.81531 22.9778H31.8775C32.3281 22.9778 32.6949 22.6066 32.6949 22.1506L32.6946 2.84903C32.6946 2.39298 32.3278 2.02176 31.8772 2.02176H2.81531Z" fill="black"/>
<path d="M17.3464 16.3412C16.4185 16.3412 15.4907 16.0625 14.699 15.5062L0.428068 5.43896C-0.0245909 5.1198 -0.135652 4.48972 0.179704 4.03163C0.49506 3.57326 1.11862 3.46112 1.57027 3.78028L15.8399 13.8462C16.7404 14.4791 17.9524 14.4796 18.8544 13.8451L33.1227 3.77991C33.5743 3.46075 34.1979 3.57264 34.5132 4.03126C34.8286 4.48938 34.7175 5.11942 34.2649 5.43859L19.9953 15.5045C19.2028 16.0618 18.274 16.3408 17.3461 16.3408L17.3464 16.3412Z" fill="black"/>
</svg>
