<svg width="39" height="39" viewBox="0 0 39 39" fill="none" xmlns="http://www.w3.org/2000/svg">
<path fill-rule="evenodd" clip-rule="evenodd" d="M2.21944 0.380643C1.71163 -0.126881 0.888677 -0.126881 0.380856 0.380643C-0.126668 0.888456 -0.126668 1.71141 0.380856 2.21923L8.66675 10.5051C7.49555 11.3022 6.38623 12.2419 5.36131 13.3236L0.356268 18.6057C-0.118756 19.1072 -0.118756 19.8924 0.356268 20.3938L5.36131 25.6759C11.4803 32.1336 20.6004 33.525 28.0134 29.8513L36.7807 38.6194C37.2885 39.1269 38.1115 39.1269 38.6193 38.6194C39.1268 38.1115 39.1268 37.2886 38.6193 36.7808L2.21944 0.380643ZM26.0549 27.8933L22.6146 24.453C21.7127 25.0211 20.6448 25.3499 19.5001 25.3499C16.2692 25.3499 13.65 22.7307 13.65 19.4999C13.65 18.3551 13.9788 17.2872 14.547 16.3853L10.5436 12.382C9.37039 13.1318 8.26278 14.0418 7.24862 15.112L3.09089 19.4998L7.24862 23.8876C12.3398 29.2605 19.7911 30.5958 26.0549 27.8933ZM16.4735 18.3119C16.3293 18.6798 16.2498 19.0803 16.2498 19.4996C16.2498 21.2946 17.7047 22.7496 19.4998 22.7496C19.9191 22.7496 20.3195 22.6701 20.6875 22.5259L16.4735 18.3119Z" fill="black"/>
<path d="M18.7823 13.6939L25.3067 20.2183C25.3355 19.9829 25.3503 19.7435 25.3503 19.5004C25.3503 16.2695 22.7311 13.6503 19.5002 13.6503C19.257 13.6503 19.0177 13.6651 18.7823 13.6939Z" fill="black"/>
<path d="M31.7512 23.8882C31.2942 24.3705 30.818 24.8205 30.3256 25.2375L32.1697 27.0816C32.6757 26.6434 33.1661 26.1751 33.6385 25.6765L38.6436 20.3944C39.1186 19.893 39.1186 19.1078 38.6436 18.6063L33.6385 13.3242C28.1373 7.51859 20.2098 5.80718 13.2789 8.19088L15.365 10.277C21.0511 8.80545 27.3021 10.4174 31.7511 15.1126L35.9088 19.5004L31.7512 23.8882Z" fill="black"/>
</svg>
