<svg width="40" height="25" viewBox="0 0 40 25" fill="none" xmlns="http://www.w3.org/2000/svg">
<path fill-rule="evenodd" clip-rule="evenodd" d="M19.7372 6.57886C16.4671 6.57886 13.8161 9.22987 13.8161 12.5C13.8161 15.7701 16.4671 18.4211 19.7372 18.4211C23.0073 18.4211 25.6583 15.7701 25.6583 12.5C25.6583 9.22987 23.0073 6.57886 19.7372 6.57886ZM16.4477 12.5C16.4477 10.6831 17.9203 9.21047 19.7372 9.21047C21.5541 9.21047 23.0267 10.6831 23.0267 12.5C23.0267 14.3169 21.5541 15.7895 19.7372 15.7895C17.9203 15.7895 16.4477 14.3169 16.4477 12.5Z" fill="black"/>
<path fill-rule="evenodd" clip-rule="evenodd" d="M34.0479 6.24878C26.1531 -2.08293 13.3213 -2.08293 5.42646 6.24878L0.360597 11.5951C-0.120199 12.1026 -0.120199 12.8974 0.360597 13.4049L5.42646 18.7512C13.3213 27.0829 26.1531 27.0829 34.0479 18.7512L39.1138 13.4049C39.5946 12.8974 39.5946 12.1026 39.1138 11.5951L34.0479 6.24878ZM7.33702 8.05888C14.1939 0.82223 25.2809 0.82223 32.1374 8.05888L36.3456 12.5L32.1374 16.9411C25.2805 24.1778 14.1935 24.1778 7.33702 16.9411L3.12876 12.5L7.33702 8.05888Z" fill="black"/>
</svg>
