<svg width="23" height="25" viewBox="0 0 23 25" fill="none" xmlns="http://www.w3.org/2000/svg">
<path fill-rule="evenodd" clip-rule="evenodd" d="M3.75012 7.50005C3.75012 3.35788 7.108 0 11.2502 0C15.3923 0 18.7502 3.35788 18.7502 7.50005V10.1878C19.1035 10.2653 19.4427 10.3781 19.7702 10.5451C20.711 11.0243 21.4759 11.7894 21.9553 12.73C22.2644 13.3369 22.3876 13.9827 22.445 14.6854C22.5002 15.3617 22.5002 16.1921 22.5002 17.1984V17.8017C22.5002 18.8079 22.5002 19.6382 22.445 20.3148C22.3876 21.0175 22.2644 21.6633 21.9553 22.2702C21.4759 23.2108 20.711 23.9757 19.7702 24.4551C19.1635 24.7642 18.5175 24.8874 17.815 24.9448C17.1385 25 16.3081 25 15.3017 25H7.19848C6.19213 25 5.36177 25 4.68521 24.9448C3.98273 24.8874 3.33671 24.7642 2.73006 24.4551C1.78923 23.9757 1.02433 23.2108 0.544921 22.2702C0.235839 21.6633 0.112581 21.0175 0.0552434 20.3148C2.23519e-07 19.6382 0 18.8079 0 17.8017V17.1984C0 16.1921 2.23519e-07 15.3617 0.0552434 14.6854C0.112581 13.9827 0.235839 13.3369 0.544921 12.73C1.02435 11.7893 1.78923 11.0243 2.73006 10.5451C3.05777 10.3781 3.39676 10.2653 3.75001 10.1878L3.75012 7.50005ZM6.25021 10.002C6.54736 9.99992 6.86312 9.99992 7.19859 9.99992H15.3019C15.6373 9.99992 15.9531 9.99992 16.2502 10.002V7.50005C16.2502 4.73858 14.0117 2.49987 11.2503 2.49987C8.48881 2.49987 6.25031 4.73858 6.25031 7.50005L6.25021 10.002ZM4.88895 12.5471C4.34091 12.5917 4.06067 12.6729 3.86524 12.7725C3.39482 13.0121 3.01228 13.3946 2.77265 13.8651C2.67304 14.0605 2.59184 14.3407 2.54706 14.8888C2.50103 15.4515 2.50019 16.1793 2.50019 17.2501V17.75C2.50019 18.8208 2.50103 19.5487 2.54706 20.1114C2.59185 20.6593 2.67304 20.9396 2.77265 21.1351C3.01226 21.6055 3.39478 21.9878 3.86524 22.2275C4.0607 22.3273 4.3409 22.4083 4.88895 22.453C5.45145 22.4991 6.17949 22.5001 7.25007 22.5001H15.2505C16.3211 22.5001 17.0491 22.4991 17.6116 22.453C18.1596 22.4083 18.4399 22.3273 18.6353 22.2275C19.1057 21.9878 19.4883 21.6055 19.7279 21.1351C19.8275 20.9396 19.9087 20.6592 19.9535 20.1114C19.9995 19.5487 20.0004 18.8208 20.0004 17.75V17.2501C20.0004 16.1793 19.9995 15.4515 19.9535 14.8888C19.9087 14.3407 19.8275 14.0605 19.7279 13.8651C19.4883 13.3946 19.1058 13.0121 18.6353 12.7725C18.4398 12.6729 18.1596 12.5917 17.6116 12.5471C17.0491 12.5011 16.3211 12.5 15.2505 12.5H7.25007C6.17949 12.5 5.45145 12.5011 4.88895 12.5471Z" fill="black"/>
</svg>
