<svg width="25" height="25" viewBox="0 0 25 25" fill="none" xmlns="http://www.w3.org/2000/svg">
<path d="M12.5 12.1622C15.9091 12.1622 18.6364 9.45946 18.6364 6.08108C18.6364 2.7027 15.9091 0 12.5 0C9.0909 0 6.36363 2.7027 6.36363 6.08108C6.36363 9.45946 9.0909 12.1622 12.5 12.1622ZM12.5 2.25225C14.6591 2.25225 16.3636 3.94144 16.3636 6.08108C16.3636 8.22072 14.6591 9.90991 12.5 9.90991C10.3409 9.90991 8.63636 8.22072 8.63636 6.08108C8.63636 3.94144 10.3409 2.25225 12.5 2.25225Z" fill="black"/>
<path d="M15 13.964H10C4.43182 13.964 0 18.4685 0 23.8739C0 24.5495 0.454545 25 1.13636 25C1.81818 25 2.27273 24.5495 2.27273 23.8739C2.27273 19.5946 5.79545 16.2162 10 16.2162H15C19.3182 16.2162 22.7273 19.7072 22.7273 23.8739C22.7273 24.5495 23.1818 25 23.8636 25C24.5455 25 25 24.5495 25 23.8739C25 18.4685 20.4545 13.964 15 13.964Z" fill="black"/>
</svg>
